<?xml version="1.0" encoding="UTF-8"?>
<svg version="1.2" width="100mm" height="100mm" viewBox="0 0 10000 10000" preserveAspectRatio="xMidYMid" xmlns="http://www.w3.org/2000/svg" xml:space="preserve">
    <style>
        .line { stroke: black; fill: none; }
        .shape { fill: black; stroke: none; }
    </style>
	<g>
		<path class="line" stroke-width="500" stroke-linejoin="round" d="M 2700,6200 L 2000,9800 8000,9800 7300,6200 2700,6200 Z"/>
		<path class="line" stroke-width="500" stroke-linejoin="round" d="M 2900,8741 L 7100,8741"/>
		<path class="line" stroke-width="400" stroke-linejoin="round" d="M 3100,7894 L 6900,7894"/>
		<path class="line" stroke-width="300" stroke-linejoin="round" d="M 3300,7153 L 6700,7153"/>
		<path class="shape" d="M 850,4100 C 595,4100 400,4295 400,4550 400,4805 595,5000 850,5000 1105,5000 1300,4805 1300,4550 1300,4295 1105,4100 850,4100 Z M 0,3600 L 10000,3600 10000,7600 8200,7600 7800,5600 2200,5600 1800,7600 0,7600 0,3600 Z"/>
		<path class="shape" d="M 6954,3350 L 6954,1501 6248,1501 C 6202,1501 6163,1491 6123,1468 6083,1444 6055,1416 6031,1376 6008,1336 5998,1297 5998,1251 L 5998,504 5994,500 3000,500 3000,3350 2500,3350 2500,250 C 2500,204 2510,165 2533,125 2557,85 2585,57 2625,33 2665,10 2704,0 2750,0 2750,0 6220,0 6248,0 6294,0 6333,10 6373,33 6395,46 6412,60 6430,78 L 7378,1079 C 7392,1094 7402,1108 7413,1126 7419,1138 7425,1149 7429,1161 7447,1195 7454,1230 7454,1270 L 7454,3350 6954,3350 Z"/>
	</g>
</svg>
